<?xml version="1.0" standalone="no"?>
<!DOCTYPE svg PUBLIC "-//W3C//DTD SVG 20010904//EN"
 "http://www.w3.org/TR/2001/REC-SVG-20010904/DTD/svg10.dtd">
<svg version="1.0" xmlns="http://www.w3.org/2000/svg"
 width="1974.000000pt" height="1973.000000pt" viewBox="0 0 1974.000000 1973.000000"
 preserveAspectRatio="xMidYMid meet">

<g transform="translate(0.000000,1973.000000) scale(0.100000,-0.100000)"
fill="#000000" stroke="none">
<path d="M7635 19714 c-1490 -74 -2857 -521 -4070 -1332 -1342 -897 -2378
-2170 -2979 -3660 -652 -1616 -752 -3432 -281 -5112 265 -947 702 -1833 1292
-2622 247 -329 476 -593 767 -882 1757 -1745 4193 -2573 6636 -2256 1117 145
2217 539 3168 1135 l117 73 2495 -2493 c2729 -2727 2526 -2532 2674 -2558 49
-8 83 -8 132 0 141 24 97 -15 1098 982 505 504 938 942 961 974 61 81 80 142
80 257 -1 83 -4 103 -29 160 -28 62 -135 171 -2527 2565 l-2499 2500 21 30
c11 17 69 111 128 210 895 1490 1271 3213 1081 4950 -179 1631 -863 3162
-1968 4410 -151 170 -523 541 -687 684 -815 714 -1739 1246 -2745 1581 -616
206 -1202 326 -1880 385 -164 15 -821 27 -985 19z m680 -2534 c1170 -74 2250
-507 3165 -1268 259 -215 640 -621 862 -917 877 -1170 1241 -2669 1002 -4125
-246 -1496 -1117 -2833 -2389 -3665 -775 -508 -1647 -804 -2575 -876 -186 -14
-613 -14 -800 0 -1699 131 -3219 1030 -4152 2456 -746 1140 -1033 2502 -813
3855 163 1000 614 1945 1296 2715 130 148 427 438 569 556 831 695 1822 1123
2882 1245 289 33 661 42 953 24z"/>
</g>
</svg>
